<?xml version="1.0" standalone="no"?>
<!DOCTYPE svg PUBLIC "-//W3C//DTD SVG 20010904//EN"
 "http://www.w3.org/TR/2001/REC-SVG-20010904/DTD/svg10.dtd">
<svg version="1.0" xmlns="http://www.w3.org/2000/svg"
 width="512.000000pt" height="512.000000pt" viewBox="0 0 512.000000 512.000000"
 preserveAspectRatio="xMidYMid meet">

<g transform="translate(0.000000,512.000000) scale(0.100000,-0.100000)"
fill="#000000" stroke="none">
<path d="M468 3910 c-121 -21 -229 -79 -319 -172 -60 -63 -123 -187 -138 -272
-15 -82 -15 -1730 0 -1812 15 -85 78 -209 138 -272 68 -70 159 -128 246 -155
l70 -22 2095 0 2095 0 70 22 c87 27 178 85 246 155 60 63 123 187 138 272 15
82 15 1730 0 1812 -15 85 -78 209 -138 272 -65 67 -157 126 -240 155 l-66 22
-2075 1 c-1141 1 -2096 -2 -2122 -6z m652 -1154 l0 -1015 23 -25 c32 -36 74
-39 107 -6 20 20 20 33 20 1040 l0 1020 1290 0 1290 0 0 -57 c0 -66 25 -103
71 -103 49 0 72 30 77 99 l4 61 282 0 c154 0 308 -5 341 -10 166 -27 305 -159
335 -319 14 -73 14 -1689 0 -1762 -30 -160 -169 -292 -335 -319 -33 -5 -187
-10 -342 -10 l-283 0 0 1014 0 1015 -22 25 c-33 36 -75 39 -108 6 -20 -20 -20
-33 -20 -1040 l0 -1020 -1290 0 -1290 0 0 57 c0 66 -25 103 -71 103 -49 0 -72
-30 -77 -99 l-4 -61 -282 0 c-154 0 -308 5 -341 10 -166 27 -305 159 -335 319
-14 73 -14 1689 0 1762 30 155 170 292 326 318 27 5 181 9 342 10 l292 1 0
-1014z"/>
<path d="M1490 3587 c-52 -26 -50 8 -47 -1039 l2 -977 23 -23 23 -23 1069 0
1069 0 23 23 23 23 0 989 0 989 -23 23 -23 23 -1057 2 c-835 2 -1062 0 -1082
-10z m2035 -1027 l0 -885 -965 0 -965 0 -3 875 c-1 481 0 881 3 888 3 10 202
12 967 10 l963 -3 0 -885z"/>
<path d="M570 3346 c-70 -15 -105 -34 -154 -83 -89 -88 -117 -236 -67 -349 26
-59 87 -123 151 -156 64 -33 204 -33 271 0 59 29 114 84 147 147 23 43 27 63
27 135 0 69 -4 94 -23 132 -66 134 -210 205 -352 174z m158 -170 c18 -11 42
-40 53 -64 53 -108 -23 -232 -143 -232 -60 0 -98 19 -133 65 -110 143 71 331
223 231z"/>
<path d="M4453 3265 c-37 -16 -43 -30 -43 -109 0 -52 4 -66 23 -84 33 -31 80
-29 106 4 24 30 29 116 10 158 -16 34 -57 47 -96 31z"/>
<path d="M4214 3026 c-48 -22 -60 -76 -24 -114 18 -19 32 -22 95 -22 68 0 75
2 94 26 27 34 26 57 -2 90 -19 22 -34 28 -78 31 -33 2 -66 -2 -85 -11z"/>
<path d="M4621 3029 c-53 -21 -67 -80 -28 -117 19 -18 35 -22 94 -22 65 0 73
2 92 26 24 31 26 43 10 78 -19 41 -108 59 -168 35z"/>
<path d="M4461 2868 c-39 -14 -50 -38 -51 -109 0 -79 20 -109 75 -109 50 0 75
37 75 110 0 85 -41 130 -99 108z"/>
<path d="M581 2444 c-31 -39 -30 -133 2 -168 33 -37 75 -39 107 -4 29 31 29
145 0 176 -30 32 -82 30 -109 -4z"/>
<path d="M4376 2375 c-74 -28 -138 -88 -178 -165 -33 -64 -33 -195 0 -262 65
-131 202 -202 342 -176 104 19 183 80 229 178 34 74 35 181 2 256 -26 59 -87
123 -151 156 -56 29 -184 36 -244 13z m184 -150 c100 -52 118 -191 35 -264
-87 -76 -206 -55 -256 47 -53 108 23 232 143 232 27 0 62 -7 78 -15z"/>
<path d="M341 2204 c-48 -62 0 -124 95 -124 96 0 148 74 91 128 -19 18 -35 22
-94 22 -65 0 -73 -2 -92 -26z"/>
<path d="M741 2204 c-27 -34 -26 -57 2 -89 38 -44 146 -46 188 -4 25 25 24 69
-1 97 -18 19 -32 22 -95 22 -68 0 -75 -2 -94 -26z"/>
<path d="M581 2044 c-24 -30 -29 -116 -10 -158 16 -34 57 -47 96 -31 37 16 43
30 43 109 0 52 -4 66 -23 84 -33 31 -80 29 -106 -4z"/>
</g>
</svg>
